<svg width="142" height="88" viewBox="0 0 142 88" fill="none" xmlns="http://www.w3.org/2000/svg">
<rect width="142" height="88" fill="black"/>
<path d="M43.9673 32.3V39.32C43.0873 39.968 42.1473 40.444 41.1473 40.748C40.1553 41.044 39.0913 41.192 37.9553 41.192C36.5393 41.192 35.2553 40.972 34.1033 40.532C32.9593 40.092 31.9793 39.48 31.1633 38.696C30.3553 37.912 29.7313 36.976 29.2913 35.888C28.8513 34.8 28.6313 33.612 28.6313 32.324C28.6313 31.02 28.8433 29.824 29.2673 28.736C29.6913 27.648 30.2913 26.712 31.0673 25.928C31.8513 25.144 32.7993 24.536 33.9113 24.104C35.0233 23.672 36.2713 23.456 37.6553 23.456C38.3593 23.456 39.0153 23.512 39.6233 23.624C40.2393 23.736 40.8073 23.892 41.3273 24.092C41.8553 24.284 42.3353 24.52 42.7673 24.8C43.1993 25.08 43.5953 25.388 43.9553 25.724L43.0313 27.188C42.8873 27.42 42.6993 27.564 42.4673 27.62C42.2353 27.668 41.9833 27.608 41.7113 27.44C41.4473 27.288 41.1833 27.136 40.9193 26.984C40.6553 26.832 40.3593 26.7 40.0313 26.588C39.7113 26.476 39.3473 26.384 38.9393 26.312C38.5393 26.24 38.0753 26.204 37.5473 26.204C36.6913 26.204 35.9153 26.348 35.2193 26.636C34.5313 26.924 33.9433 27.336 33.4553 27.872C32.9673 28.408 32.5913 29.052 32.3273 29.804C32.0633 30.556 31.9313 31.396 31.9313 32.324C31.9313 33.316 32.0713 34.204 32.3513 34.988C32.6393 35.764 33.0393 36.424 33.5513 36.968C34.0713 37.504 34.6953 37.916 35.4233 38.204C36.1513 38.484 36.9633 38.624 37.8593 38.624C38.4993 38.624 39.0713 38.556 39.5753 38.42C40.0793 38.284 40.5713 38.1 41.0513 37.868V34.724H38.8673C38.6593 34.724 38.4953 34.668 38.3753 34.556C38.2633 34.436 38.2073 34.292 38.2073 34.124V32.3H43.9673ZM54.7213 31.904C55.3293 31.904 55.8573 31.828 56.3053 31.676C56.7613 31.524 57.1333 31.316 57.4213 31.052C57.7173 30.78 57.9373 30.46 58.0813 30.092C58.2253 29.724 58.2973 29.32 58.2973 28.88C58.2973 28 58.0053 27.324 57.4213 26.852C56.8453 26.38 55.9613 26.144 54.7693 26.144H52.7053V31.904H54.7213ZM63.0253 41H60.1093C59.5573 41 59.1573 40.784 58.9093 40.352L55.2613 34.796C55.1253 34.588 54.9733 34.44 54.8053 34.352C54.6453 34.264 54.4053 34.22 54.0853 34.22H52.7053V41H49.4773V23.648H54.7693C55.9453 23.648 56.9533 23.772 57.7933 24.02C58.6413 24.26 59.3333 24.6 59.8693 25.04C60.4133 25.48 60.8133 26.008 61.0693 26.624C61.3253 27.232 61.4533 27.904 61.4533 28.64C61.4533 29.224 61.3653 29.776 61.1893 30.296C61.0213 30.816 60.7733 31.288 60.4453 31.712C60.1253 32.136 59.7253 32.508 59.2453 32.828C58.7733 33.148 58.2333 33.4 57.6253 33.584C57.8333 33.704 58.0253 33.848 58.2013 34.016C58.3773 34.176 58.5373 34.368 58.6813 34.592L63.0253 41ZM70.5392 26.216V31.028H76.6112V33.512H70.5392V38.42H78.2432V41H67.2992V23.648H78.2432V26.216H70.5392ZM86.7439 26.216V31.028H92.8159V33.512H86.7439V38.42H94.4479V41H83.5039V23.648H94.4479V26.216H86.7439ZM114.337 23.648V41H112.681C112.425 41 112.209 40.96 112.033 40.88C111.865 40.792 111.701 40.648 111.541 40.448L102.481 28.88C102.529 29.408 102.553 29.896 102.553 30.344V41H99.7086V23.648H101.401C101.537 23.648 101.653 23.656 101.749 23.672C101.853 23.68 101.941 23.704 102.013 23.744C102.093 23.776 102.169 23.828 102.241 23.9C102.313 23.964 102.393 24.052 102.481 24.164L111.577 35.78C111.553 35.5 111.533 35.224 111.517 34.952C111.501 34.68 111.493 34.428 111.493 34.196V23.648H114.337ZM27.8243 50.216V55.352H34.3283V57.932H27.8243V65H24.5843V47.648H35.5283V50.216H27.8243ZM45.8221 55.904C46.4301 55.904 46.9581 55.828 47.4061 55.676C47.8621 55.524 48.2341 55.316 48.5221 55.052C48.8181 54.78 49.0381 54.46 49.1821 54.092C49.3261 53.724 49.3981 53.32 49.3981 52.88C49.3981 52 49.1061 51.324 48.5221 50.852C47.9461 50.38 47.0621 50.144 45.8701 50.144H43.8061V55.904H45.8221ZM54.1261 65H51.2101C50.6581 65 50.2581 64.784 50.0101 64.352L46.3621 58.796C46.2261 58.588 46.0741 58.44 45.9061 58.352C45.7461 58.264 45.5061 58.22 45.1861 58.22H43.8061V65H40.5781V47.648H45.8701C47.0461 47.648 48.0541 47.772 48.8941 48.02C49.7421 48.26 50.4341 48.6 50.9701 49.04C51.5141 49.48 51.9141 50.008 52.1701 50.624C52.4261 51.232 52.5541 51.904 52.5541 52.64C52.5541 53.224 52.4661 53.776 52.2901 54.296C52.1221 54.816 51.8741 55.288 51.5461 55.712C51.2261 56.136 50.8261 56.508 50.3461 56.828C49.8741 57.148 49.3341 57.4 48.7261 57.584C48.9341 57.704 49.1261 57.848 49.3021 58.016C49.4781 58.176 49.6381 58.368 49.7821 58.592L54.1261 65ZM61.64 65H58.4V47.648H61.64V65ZM71.165 50.216V55.028H77.237V57.512H71.165V62.42H78.869V65H67.925V47.648H78.869V50.216H71.165ZM98.7577 47.648V65H97.1017C96.8457 65 96.6297 64.96 96.4537 64.88C96.2857 64.792 96.1217 64.648 95.9617 64.448L86.9017 52.88C86.9497 53.408 86.9737 53.896 86.9737 54.344V65H84.1297V47.648H85.8217C85.9577 47.648 86.0737 47.656 86.1697 47.672C86.2737 47.68 86.3617 47.704 86.4337 47.744C86.5137 47.776 86.5897 47.828 86.6617 47.9C86.7337 47.964 86.8137 48.052 86.9017 48.164L95.9977 59.78C95.9737 59.5 95.9537 59.224 95.9377 58.952C95.9217 58.68 95.9137 58.428 95.9137 58.196V47.648H98.7577ZM120.43 56.324C120.43 57.596 120.218 58.764 119.794 59.828C119.37 60.892 118.774 61.808 118.006 62.576C117.238 63.344 116.314 63.94 115.234 64.364C114.154 64.788 112.954 65 111.634 65H105.022V47.648H111.634C112.954 47.648 114.154 47.864 115.234 48.296C116.314 48.72 117.238 49.316 118.006 50.084C118.774 50.844 119.37 51.756 119.794 52.82C120.218 53.884 120.43 55.052 120.43 56.324ZM117.118 56.324C117.118 55.372 116.99 54.52 116.734 53.768C116.486 53.008 116.122 52.368 115.642 51.848C115.17 51.32 114.594 50.916 113.914 50.636C113.242 50.356 112.482 50.216 111.634 50.216H108.262V62.432H111.634C112.482 62.432 113.242 62.292 113.914 62.012C114.594 61.732 115.17 61.332 115.642 60.812C116.122 60.284 116.486 59.644 116.734 58.892C116.99 58.132 117.118 57.276 117.118 56.324Z" fill="white"/>
</svg>
